<?xml version="1.0" encoding="UTF-8"?>
<svg xmlns="http://www.w3.org/2000/svg" xmlns:xlink="http://www.w3.org/1999/xlink" width="1200px" height="272px" viewBox="0 0 1203 272" version="1.1">
<g id="surface1">
<path style=" stroke:none;fill-rule:nonzero;fill:rgb(0%,0%,0%);fill-opacity:1;" d="M 23.683594 218.167969 L 23.683594 40.457031 L 42.976562 40.457031 L 143.152344 192.648438 L 143.152344 40.457031 L 160.132812 40.457031 L 160.132812 218.167969 L 141.066406 218.167969 L 40.964844 65.941406 L 40.964844 218.167969 Z M 23.683594 218.167969 "/>
<path style=" stroke:none;fill-rule:nonzero;fill:rgb(0%,0%,0%);fill-opacity:1;" d="M 203.105469 180.277344 L 203.105469 122.605469 C 203.105469 97.347656 215.730469 84.730469 240.980469 84.753906 L 274.496094 84.753906 C 299.546875 84.753906 312.082031 97.371094 312.109375 122.605469 L 312.109375 157.886719 L 219.34375 157.886719 L 219.34375 182.847656 C 219.34375 196.929688 226.382812 203.972656 240.457031 203.972656 L 306.855469 203.972656 L 306.855469 211.425781 L 298.105469 218.128906 L 240.980469 218.128906 C 215.730469 218.15625 203.105469 205.539062 203.105469 180.277344 Z M 219.34375 144.214844 L 295.796875 144.214844 L 295.796875 120.035156 C 295.796875 106.101562 288.832031 99.171875 274.941406 99.171875 L 240.457031 99.171875 C 226.382812 99.171875 219.34375 106.101562 219.34375 120.035156 Z M 219.34375 144.214844 "/>
<path style=" stroke:none;fill-rule:nonzero;fill:rgb(0%,0%,0%);fill-opacity:1;" d="M 338.882812 214.8125 L 387.296875 149.914062 L 341.117188 88.070312 L 342.644531 84.753906 L 357.839844 84.753906 L 396.976562 138.367188 L 436.117188 84.828125 L 451.011719 84.828125 L 452.539062 88.144531 L 406.511719 149.914062 L 454.625 214.8125 L 453.097656 218.167969 L 437.90625 218.167969 L 396.941406 161.761719 L 355.789062 218.167969 L 340.894531 218.167969 Z M 338.882812 214.8125 "/>
<path style=" stroke:none;fill-rule:nonzero;fill:rgb(0%,0%,0%);fill-opacity:1;" d="M 482.445312 180.277344 L 482.445312 84.753906 L 498.644531 84.753906 L 498.644531 182.847656 C 498.644531 196.929688 505.679688 203.972656 519.757812 203.972656 L 575.132812 203.972656 L 575.132812 84.753906 L 591.332031 84.753906 L 591.332031 218.167969 L 520.28125 218.167969 C 495.082031 218.167969 482.46875 205.539062 482.445312 180.277344 Z M 482.445312 180.277344 "/>
<path style=" stroke:none;fill-rule:nonzero;fill:rgb(0%,0%,0%);fill-opacity:1;" d="M 944.035156 218.167969 L 944.035156 193.167969 L 965.109375 193.167969 L 965.109375 218.167969 Z M 944.035156 218.167969 "/>
<path style=" stroke:none;fill-rule:nonzero;fill:rgb(0%,0%,0%);fill-opacity:1;" d="M 1010.953125 218.167969 L 1010.953125 40.457031 L 1028.195312 40.457031 L 1028.195312 218.167969 Z M 1010.953125 218.167969 "/>
<path style=" stroke:none;fill-rule:nonzero;fill:rgb(0%,0%,0%);fill-opacity:1;" d="M 1058.324219 56.140625 L 1058.324219 40.457031 L 1196.816406 40.457031 L 1196.816406 56.140625 L 1136.078125 56.140625 L 1136.078125 218.167969 L 1119.0625 218.167969 L 1119.0625 56.140625 Z M 1058.324219 56.140625 "/>
<path style=" stroke:none;fill-rule:nonzero;fill:rgb(0%,0%,0%);fill-opacity:1;" d="M 800.101562 3.539062 L 923.960938 218.128906 L 676.242188 218.128906 Z M 800.101562 3.539062 "/>
<path style=" stroke:none;fill-rule:nonzero;fill:rgb(0%,0%,0%);fill-opacity:1;" d="M 711.765625 40.90625 L 814.066406 218.128906 L 609.507812 218.128906 Z M 711.765625 40.90625 "/>
<path style=" stroke:none;fill-rule:nonzero;fill:rgb(100%,100%,100%);fill-opacity:1;" d="M 800.101562 31.179688 L 843.261719 105.992188 L 756.902344 105.992188 Z M 800.101562 31.179688 "/>
<path style=" stroke:none;fill-rule:nonzero;fill:rgb(100%,100%,100%);fill-opacity:1;" d="M 711.765625 68.585938 L 744.015625 124.433594 L 679.554688 124.433594 Z M 711.765625 68.585938 "/>
<path style="fill-rule:nonzero;fill:rgb(0%,0%,0%);fill-opacity:1;stroke-width:1;stroke-linecap:butt;stroke-linejoin:miter;stroke:rgb(0%,0%,0%);stroke-opacity:1;stroke-miterlimit:10;" d="M 187.149809 29.869554 C 187.462393 30.13797 187.797005 30.378076 188.150497 30.589872 C 188.649793 30.734565 189.180557 30.734565 189.679852 30.589872 C 190.180197 30.435743 190.720401 30.490265 191.179837 30.739808 C 191.409555 30.900228 191.570042 31.140334 191.79032 31.310191 C 192.004304 31.45069 192.241364 31.551345 192.489963 31.610061 C 192.890658 31.766288 193.322822 31.821858 193.74974 31.770482 C 194.093793 31.621595 194.457775 31.524084 194.830149 31.480048 C 195.024202 31.509405 195.213012 31.566024 195.390283 31.649904 C 196.289224 32.0022 197.277326 32.05777 198.209834 31.810325 C 198.3913 31.753706 198.58011 31.726445 198.769968 31.72959 C 199.062622 31.784112 199.308074 31.983327 199.420311 32.26013 C 199.534645 32.536934 199.604924 32.830513 199.630099 33.130384 C 199.686742 33.260398 199.683595 33.410333 199.619609 33.537201 C 199.555624 33.665118 199.439192 33.757386 199.299683 33.78989 C 199.073112 33.886351 198.839198 33.962892 198.60004 34.019511 C 198.044101 34.143234 197.478722 34.217677 196.910197 34.239695 C 192.949399 34.511256 188.976013 34.558439 185.009971 34.380194 C 184.352285 34.406407 183.697746 34.276393 183.099851 33.999589 C 182.713841 33.818199 182.471535 33.426061 182.479927 33.00037 C 182.539716 32.509673 183.059991 32.249645 183.390407 31.89001 C 183.642153 31.572315 183.832011 31.208486 183.949492 30.819494 C 184.07012 30.47978 184.200189 29.880039 184.500186 29.650418 C 184.800183 29.419748 185.499826 29.509919 185.799823 29.520404 C 186.272895 29.515161 186.738624 29.635739 187.149809 29.869554 Z M 187.149809 29.869554 " transform="matrix(3.723997,0,0,3.725566,0,0.519789)"/>
<path style="fill-rule:nonzero;fill:rgb(0%,0%,0%);fill-opacity:1;stroke-width:1;stroke-linecap:butt;stroke-linejoin:miter;stroke:rgb(0%,0%,0%);stroke-opacity:1;stroke-miterlimit:10;" d="M 207.610436 22.589829 C 208.230359 22.790093 208.899583 22.759686 209.519507 22.929543 C 210.140479 23.100448 210.789773 23.550254 211.449557 23.79036 C 212.36633 24.131122 213.378558 24.110152 214.279597 23.729547 C 214.778893 23.440162 215.323293 23.236753 215.88972 23.129806 C 216.399505 23.129806 216.93971 23.330069 217.409635 23.129806 C 217.656136 22.971483 217.890049 22.794287 218.110327 22.600314 C 218.583399 22.33085 219.142484 22.255358 219.670101 22.389566 C 220.210305 22.490222 220.72009 22.68 221.260294 22.730328 C 221.950497 22.779608 222.70993 22.629672 223.259574 23.019714 C 223.56062 23.270305 223.791387 23.594291 223.929847 23.960217 L 225.449761 27.109906 C 225.857799 27.732714 225.987868 28.49707 225.809548 29.219485 C 225.386825 29.887378 224.685084 30.328796 223.900477 30.420016 C 220.625685 31.189613 217.244951 31.399313 213.899881 31.039678 C 212.439756 30.900228 210.990121 30.68948 209.529996 30.669558 C 208.619516 30.669558 207.710085 30.669558 206.799605 30.669558 C 205.621645 30.597212 204.453126 30.413725 203.309781 30.120145 C 203.062231 30.085545 202.825171 29.993277 202.619578 29.849632 C 202.416084 29.705988 202.338462 29.441767 202.42972 29.210048 C 202.530418 29.000349 202.789507 28.919614 202.989854 28.789601 C 203.308732 28.529573 203.544744 28.18252 203.669567 27.790382 L 204.860115 25.04017 C 205.055217 24.557861 205.289131 24.093376 205.559758 23.649861 C 205.842971 23.317487 206.066396 22.938979 206.219541 22.530065 C 206.28982 22.270037 206.219541 21.710139 206.519538 21.609483 C 206.727228 22.077114 207.123727 22.433603 207.610436 22.589829 Z M 207.610436 22.589829 " transform="matrix(3.723997,0,0,3.725566,0,0.519789)"/>
</g>
</svg>
