<svg id="Layer_1" data-name="Layer 1" xmlns="http://www.w3.org/2000/svg" viewBox="0 0 214.12 146.08"><defs><style>.cls-1{fill:#fff;}.cls-2{stroke:#000;stroke-miterlimit:10;}</style></defs><polygon points="129.78 0 214.12 146.08 45.44 146.08 129.78 0"/><polygon points="69.65 25.45 139.29 146.08 0 146.08 69.65 25.45"/><polygon class="cls-1" points="129.78 18.82 159.17 69.73 100.38 69.73 129.78 18.82"/><polygon class="cls-1" points="69.65 44.28 91.59 82.29 47.7 82.29 69.65 44.28"/><path class="cls-2" d="M59.56,73.69a17.61,17.61,0,0,0,2.59,1.83,7,7,0,0,0,3.89,0,4.94,4.94,0,0,1,3.82.39c.57.4,1,1,1.53,1.43a5.44,5.44,0,0,0,1.78.77,6.51,6.51,0,0,0,3.19.41c.93-.2,1.79-.8,2.73-.74a4.65,4.65,0,0,1,1.42.43,11.62,11.62,0,0,0,7.16.42,3.82,3.82,0,0,1,1.41-.22,2.29,2.29,0,0,1,1.67,1.36,7.14,7.14,0,0,1,.52,2.2,1.72,1.72,0,0,1-.16,1.23,1.44,1.44,0,0,1-.68.44,12.25,12.25,0,0,1-1.77.59,24.69,24.69,0,0,1-4.29.55,266.39,266.39,0,0,1-30.17.35,10.59,10.59,0,0,1-4.92-1,2.76,2.76,0,0,1-1.57-2.5c.16-1.25,1.47-1.91,2.3-2.82A7.87,7.87,0,0,0,51.43,76c.31-.85.64-2.4,1.4-3s2.43-.36,3.3-.32A6.81,6.81,0,0,1,59.56,73.69Z"/><path class="cls-2" d="M110.38,55.25c1.73.49,3.61.41,5.36.86,1.91.48,3.55,1.56,5.4,2.18a12,12,0,0,0,8-.16c1.49-.56,2.9-1.45,4.51-1.52,1.44-.06,3,.52,4.27,0a13.94,13.94,0,0,0,2-1.34,6.5,6.5,0,0,1,4.41-.53c1.49.26,2.94.73,4.45.85,1.92.15,4.06-.24,5.62.75a5.94,5.94,0,0,1,1.89,2.39l4.26,8c.89,1.68,1.8,3.61,1,5.33s-3.22,2.58-5.36,3.06A92.55,92.55,0,0,1,128,76.67c-4.09-.35-8.17-.9-12.28-.94-2.56,0-5.12.13-7.67,0a59.77,59.77,0,0,1-9.8-1.39,4.86,4.86,0,0,1-1.91-.69,1.33,1.33,0,0,1-.56-1.63c.3-.53,1-.74,1.58-1.07a5.32,5.32,0,0,0,1.92-2.52l3.33-7a21.51,21.51,0,0,1,2-3.53,10.1,10.1,0,0,0,1.85-2.85c.2-.67,0-2.09.84-2.32A4.92,4.92,0,0,0,110.38,55.25Z"/></svg>