<svg id="Layer_1" data-name="Layer 1" xmlns="http://www.w3.org/2000/svg" viewBox="0 0 1199.87 629.56"><defs><style>.cls-1{fill:#fff;}.cls-2{stroke:#000;stroke-miterlimit:10;}</style></defs><path d="M6.36,58.42V10.72h5.18l26.9,40.85V10.72H43v47.7H37.88L11,17.56V58.42Z"/><path d="M54.54,48.25V32.77q0-10.17,10.17-10.16h9q10.09,0,10.1,10.16v9.47H58.9v6.7q0,5.67,5.67,5.67H82.4v2l-2.35,1.8H64.71Q54.54,58.42,54.54,48.25Zm4.36-9.68H79.43V32.08c0-3.74-1.87-5.6-5.6-5.6H64.57c-3.78,0-5.67,1.86-5.67,5.6Z"/><path d="M91,57.52,104,40.1,91.6,23.5l.41-.89h4.08L106.6,37l10.51-14.37h4l.41.89L109.16,40.1l12.92,17.42-.41.9h-4.08l-11-15.14L95.54,58.42h-4Z"/><path d="M129.55,48.25V22.61h4.35V48.94q0,5.67,5.67,5.67h14.87v-32h4.35V58.42H139.71Q129.56,58.42,129.55,48.25Z"/><path d="M253.5,58.42V51.71h5.66v6.71Z"/><path d="M271.47,58.42V10.72h4.63v47.7Z"/><path d="M284.19,14.93V10.72h37.19v4.21H305.07V58.42H300.5V14.93Z"/><polygon points="214.85 0.81 248.11 58.41 181.59 58.41 214.85 0.81"/><polygon points="191.13 10.84 218.6 58.41 163.67 58.41 191.13 10.84"/><polygon class="cls-1" points="214.85 8.23 226.44 28.31 203.25 28.31 214.85 8.23"/><polygon class="cls-1" points="191.13 18.27 199.79 33.26 182.48 33.26 191.13 18.27"/><path class="cls-2" d="M187.15,29.87a7.32,7.32,0,0,0,1,.72,2.75,2.75,0,0,0,1.53,0,1.94,1.94,0,0,1,1.5.15c.23.16.39.4.61.57a2.18,2.18,0,0,0,.7.3,2.6,2.6,0,0,0,1.26.16,3.85,3.85,0,0,1,1.08-.29,2,2,0,0,1,.56.17,4.54,4.54,0,0,0,2.82.16,1.77,1.77,0,0,1,.56-.08.87.87,0,0,1,.65.53,2.91,2.91,0,0,1,.21.87.48.48,0,0,1-.33.66,4.41,4.41,0,0,1-.7.23,9.53,9.53,0,0,1-1.69.22,105,105,0,0,1-11.9.14A4.16,4.16,0,0,1,183.1,34a1.08,1.08,0,0,1-.62-1c.06-.49.58-.75.91-1.11a3.22,3.22,0,0,0,.56-1.07c.12-.34.25-.94.55-1.17s1-.14,1.3-.13A2.68,2.68,0,0,1,187.15,29.87Z"/><path class="cls-2" d="M207.61,22.59c.62.2,1.29.17,1.91.34s1.27.62,1.93.86a3.84,3.84,0,0,0,2.83-.06,5.07,5.07,0,0,1,1.61-.6c.51,0,1.05.2,1.52,0a5.85,5.85,0,0,0,.7-.53,2.1,2.1,0,0,1,1.56-.21c.54.1,1.05.29,1.59.34.69.05,1.45-.1,2,.29a2.26,2.26,0,0,1,.67.94l1.52,3.15a2.68,2.68,0,0,1,.36,2.11,2.62,2.62,0,0,1-1.91,1.2,29.81,29.81,0,0,1-10,.62c-1.46-.14-2.91-.35-4.37-.37-.91,0-1.82,0-2.73,0a18.66,18.66,0,0,1-3.49-.55,1.59,1.59,0,0,1-.69-.27.54.54,0,0,1-.19-.64c.1-.21.36-.29.56-.42a2.13,2.13,0,0,0,.68-1l1.19-2.75a9.52,9.52,0,0,1,.7-1.39,3.76,3.76,0,0,0,.66-1.12c.07-.26,0-.82.3-.92A1.79,1.79,0,0,0,207.61,22.59Z"/></svg>