<svg id="Layer_1" data-name="Layer 1" xmlns="http://www.w3.org/2000/svg" viewBox="0 0 323.04 72.92"><defs><style>.cls-1,.cls-2{fill:#fff;}.cls-2{stroke:#fff;stroke-miterlimit:10;}</style></defs><path class="cls-1" d="M6.36,58.61V10.91h5.18l26.9,40.86V10.91H43v47.7H37.88L11,17.75V58.61Z"/><path class="cls-1" d="M54.54,48.45V33q0-10.16,10.17-10.16h9q10.09,0,10.1,10.16v9.47H58.9v6.71q0,5.67,5.67,5.67H82.4v2l-2.35,1.8H64.71Q54.54,58.61,54.54,48.45Zm4.36-9.68H79.43v-6.5q0-5.6-5.6-5.6H64.57q-5.67,0-5.67,5.6Z"/><path class="cls-1" d="M91,57.71l13-17.42L91.6,23.7l.41-.9h4.08L106.6,37.18,117.11,22.8h4l.41.9L109.16,40.29l12.92,17.42-.41.9h-4.08l-11-15.14L95.54,58.61h-4Z"/><path class="cls-1" d="M129.55,48.45V22.8h4.35V49.14q0,5.67,5.67,5.67h14.87v-32h4.35V58.61H139.71Q129.56,58.61,129.55,48.45Z"/><path class="cls-1" d="M253.5,58.61V51.9h5.66v6.71Z"/><path class="cls-1" d="M271.47,58.61V10.91h4.63v47.7Z"/><path class="cls-1" d="M284.19,15.13V10.91h37.19v4.22H305.07V58.61H300.5V15.13Z"/><polygon class="cls-2" points="214.85 1 248.11 58.61 181.59 58.61 214.85 1"/><polygon class="cls-2" points="191.13 11.04 218.6 58.61 163.67 58.61 191.13 11.04"/><polygon points="214.85 8.42 226.44 28.5 203.25 28.5 214.85 8.42"/><polygon points="191.13 18.46 199.79 33.45 182.48 33.45 191.13 18.46"/><path class="cls-2" d="M186.8,30.06a6.83,6.83,0,0,0,1.14.72,3.31,3.31,0,0,0,1.71,0,2.46,2.46,0,0,1,1.68.15c.25.16.42.41.67.57a2.65,2.65,0,0,0,.78.31,3.23,3.23,0,0,0,1.41.15,5.67,5.67,0,0,1,1.2-.29,2.58,2.58,0,0,1,.62.17,5.73,5.73,0,0,0,3.15.17,1.9,1.9,0,0,1,.62-.09,1,1,0,0,1,.74.54,2.59,2.59,0,0,1,.22.87.58.58,0,0,1-.07.48.62.62,0,0,1-.29.18,7.67,7.67,0,0,1-.78.23,13.34,13.34,0,0,1-1.89.22q-6.63.39-13.27.13a5.22,5.22,0,0,1-2.16-.4c-.39-.21-.75-.58-.69-1s.65-.75,1-1.11a3.06,3.06,0,0,0,.63-1.07c.13-.34.28-.95.61-1.18a3,3,0,0,1,1.45-.12A3.25,3.25,0,0,1,186.8,30.06Z"/><path class="cls-2" d="M206.86,22.79c.68.19,1.42.16,2.11.34s1.38.61,2.11.86a4.77,4.77,0,0,0,3.12-.06,5.4,5.4,0,0,1,1.76-.6c.57,0,1.16.2,1.67,0a5.1,5.1,0,0,0,.78-.53,2.52,2.52,0,0,1,1.72-.2c.59.09,1.15.28,1.75.33a4.81,4.81,0,0,1,2.2.3,2.35,2.35,0,0,1,.74.94l1.66,3.15a2.42,2.42,0,0,1,.39,2.1,2.9,2.9,0,0,1-2.1,1.21,36.23,36.23,0,0,1-11,.62c-1.61-.14-3.2-.36-4.81-.38-1,0-2,.06-3,0a25,25,0,0,1-3.84-.55,2.1,2.1,0,0,1-.75-.27.53.53,0,0,1-.21-.65c.11-.21.4-.29.62-.42a2.17,2.17,0,0,0,.75-1l1.3-2.75a8.24,8.24,0,0,1,.78-1.39,4.15,4.15,0,0,0,.72-1.13c.08-.26,0-.82.33-.91A2,2,0,0,0,206.86,22.79Z"/></svg>